<svg width="100" height="30" viewBox="0 0 100 30" fill="none" xmlns="http://www.w3.org/2000/svg">
<path d="M30 10.1179H19.8353V0H10.0941C10.0941 5.58962 5.57647 10.1179 0 10.1179V19.8821H10.0941V30H19.8353C19.8353 24.4104 24.4235 19.8821 30 19.8821V10.1179Z" fill="#FF1A1A"/>
<path d="M48.028 9.728L45.298 19.5H42.988L41.154 12.542L39.236 19.5L36.94 19.514L34.308 9.728H36.408L38.13 17.316L40.118 9.728H42.302L44.178 17.274L45.914 9.728H48.028ZM56.5178 15.454C56.5178 15.734 56.4991 15.986 56.4618 16.21H50.7918C50.8385 16.77 51.0345 17.2087 51.3798 17.526C51.7251 17.8433 52.1498 18.002 52.6538 18.002C53.3818 18.002 53.8998 17.6893 54.2078 17.064H56.3218C56.0978 17.8107 55.6685 18.4267 55.0338 18.912C54.3991 19.388 53.6198 19.626 52.6958 19.626C51.9491 19.626 51.2771 19.4627 50.6798 19.136C50.0918 18.8 49.6298 18.3287 49.2938 17.722C48.9671 17.1153 48.8038 16.4153 48.8038 15.622C48.8038 14.8193 48.9671 14.1147 49.2938 13.508C49.6205 12.9013 50.0778 12.4347 50.6658 12.108C51.2538 11.7813 51.9305 11.618 52.6958 11.618C53.4331 11.618 54.0911 11.7767 54.6698 12.094C55.2578 12.4113 55.7105 12.864 56.0278 13.452C56.3545 14.0307 56.5178 14.698 56.5178 15.454ZM54.4878 14.894C54.4785 14.39 54.2965 13.9887 53.9418 13.69C53.5871 13.382 53.1531 13.228 52.6398 13.228C52.1545 13.228 51.7438 13.3773 51.4078 13.676C51.0811 13.9653 50.8805 14.3713 50.8058 14.894H54.4878ZM59.9084 12.878C60.1604 12.5047 60.5058 12.2013 60.9444 11.968C61.3924 11.7347 61.9011 11.618 62.4704 11.618C63.1331 11.618 63.7304 11.7813 64.2624 12.108C64.8038 12.4347 65.2284 12.9013 65.5364 13.508C65.8538 14.1053 66.0124 14.8007 66.0124 15.594C66.0124 16.3873 65.8538 17.092 65.5364 17.708C65.2284 18.3147 64.8038 18.786 64.2624 19.122C63.7304 19.458 63.1331 19.626 62.4704 19.626C61.8918 19.626 61.3831 19.514 60.9444 19.29C60.5151 19.0567 60.1698 18.758 59.9084 18.394V19.5H57.9484V9.14H59.9084V12.878ZM64.0104 15.594C64.0104 15.1273 63.9124 14.726 63.7164 14.39C63.5298 14.0447 63.2778 13.7833 62.9604 13.606C62.6524 13.4287 62.3164 13.34 61.9524 13.34C61.5978 13.34 61.2618 13.4333 60.9444 13.62C60.6364 13.7973 60.3844 14.0587 60.1884 14.404C60.0018 14.7493 59.9084 15.1553 59.9084 15.622C59.9084 16.0887 60.0018 16.4947 60.1884 16.84C60.3844 17.1853 60.6364 17.4513 60.9444 17.638C61.2618 17.8153 61.5978 17.904 61.9524 17.904C62.3164 17.904 62.6524 17.8107 62.9604 17.624C63.2778 17.4373 63.5298 17.1713 63.7164 16.826C63.9124 16.4807 64.0104 16.07 64.0104 15.594ZM73.4287 17.638H69.5367L68.8927 19.5H66.8347L70.3487 9.714H72.6307L76.1447 19.5H74.0727L73.4287 17.638ZM72.8967 16.07L71.4827 11.982L70.0687 16.07H72.8967ZM79.4182 9.14V19.5H77.4582V9.14H79.4182ZM83.3147 9.14V19.5H81.3547V9.14H83.3147ZM92.6712 11.744L87.8692 23.168H85.7832L87.4632 19.304L84.3552 11.744H86.5532L88.5552 17.162L90.5852 11.744H92.6712Z" fill="white" fill-opacity="0.88"/>
</svg>
